  0
SECTION
  2
HEADER
  9
$ACADVER
  1
AC1009
  9
$INSBASE
 10
0.0
 20
0.0
 30
0.0
  9
$EXTMIN
 10
-25.79365247422766
 20
-30.546641278483811
 30
0.0
  9
$EXTMAX
 10
99.397695971858809
 20
22.0
 30
0.0
  9
$LIMMIN
 10
0.0
 20
0.0
  9
$LIMMAX
 10
420.0
 20
297.0
  9
$ORTHOMODE
 70
     0
  9
$REGENMODE
 70
     1
  9
$FILLMODE
 70
     1
  9
$QTEXTMODE
 70
     0
  9
$MIRRTEXT
 70
     0
  9
$DRAGMODE
 70
     2
  9
$LTSCALE
 40
1.0
  9
$OSMODE
 70
    39
  9
$ATTMODE
 70
     1
  9
$TEXTSIZE
 40
3.0
  9
$TRACEWID
 40
1.0
  9
$TEXTSTYLE
  7
STANDARD
  9
$CLAYER
  8
0
  9
$CELTYPE
  6
CONTINUOUS
  9
$CECOLOR
 62
     7
  9
$DIMSCALE
 40
1.0
  9
$DIMASZ
 40
2.5
  9
$DIMEXO
 40
0.625
  9
$DIMDLI
 40
3.75
  9
$DIMRND
 40
0.0
  9
$DIMDLE
 40
0.0
  9
$DIMEXE
 40
1.25
  9
$DIMTP
 40
0.0
  9
$DIMTM
 40
0.0
  9
$DIMTXT
 40
2.5
  9
$DIMCEN
 40
2.5
  9
$DIMTSZ
 40
0.0
  9
$DIMTOL
 70
     0
  9
$DIMLIM
 70
     0
  9
$DIMTIH
 70
     0
  9
$DIMTOH
 70
     0
  9
$DIMSE1
 70
     0
  9
$DIMSE2
 70
     0
  9
$DIMTAD
 70
     1
  9
$DIMZIN
 70
     8
  9
$DIMBLK
  1
OPEN30
  9
$DIMASO
 70
     1
  9
$DIMSHO
 70
     1
  9
$DIMPOST
  1

  9
$DIMAPOST
  1

  9
$DIMALT
 70
     0
  9
$DIMALTD
 70
     3
  9
$DIMALTF
 40
0.03937007874016
  9
$DIMLFAC
 40
1.0
  9
$DIMTOFL
 70
     1
  9
$DIMTVP
 40
0.0
  9
$DIMTIX
 70
     0
  9
$DIMSOXD
 70
     0
  9
$DIMSAH
 70
     0
  9
$DIMBLK1
  1

  9
$DIMBLK2
  1

  9
$DIMSTYLE
  2
MISUMI
  9
$DIMCLRD
 70
   137
  9
$DIMCLRE
 70
   137
  9
$DIMCLRT
 70
   137
  9
$DIMTFAC
 40
1.0
  9
$DIMGAP
 40
0.625
  9
$LUNITS
 70
     2
  9
$LUPREC
 70
     2
  9
$SKETCHINC
 40
1.0
  9
$FILLETRAD
 40
0.3
  9
$AUNITS
 70
     0
  9
$AUPREC
 70
     0
  9
$MENU
  1
.
  9
$ELEVATION
 40
0.0
  9
$PELEVATION
 40
0.0
  9
$THICKNESS
 40
0.0
  9
$LIMCHECK
 70
     0
  9
$BLIPMODE
 70
     0
  9
$CHAMFERA
 40
0.5
  9
$CHAMFERB
 40
0.5
  9
$SKPOLY
 70
     0
  9
$TDCREATE
 40
2455135.5720697111
  9
$TDUPDATE
 40
2456463.7704617712
  9
$TDINDWG
 40
0.184319919
  9
$TDUSRTIMER
 40
0.1843188194
  9
$USRTIMER
 70
     1
  9
$ANGBASE
 50
0.0
  9
$ANGDIR
 70
     0
  9
$PDMODE
 70
    35
  9
$PDSIZE
 40
0.0
  9
$PLINEWID
 40
0.0
  9
$COORDS
 70
     1
  9
$SPLFRAME
 70
     0
  9
$SPLINETYPE
 70
     6
  9
$SPLINESEGS
 70
     8
  9
$ATTDIA
 70
     0
  9
$ATTREQ
 70
     1
  9
$HANDLING
 70
     1
  9
$HANDSEED
  5
7D47
  9
$SURFTAB1
 70
     6
  9
$SURFTAB2
 70
     6
  9
$SURFTYPE
 70
     6
  9
$SURFU
 70
     6
  9
$SURFV
 70
     6
  9
$UCSNAME
  2

  9
$UCSORG
 10
0.0
 20
0.0
 30
0.0
  9
$UCSXDIR
 10
1.0
 20
0.0
 30
0.0
  9
$UCSYDIR
 10
0.0
 20
1.0
 30
0.0
  9
$PUCSNAME
  2

  9
$PUCSORG
 10
0.0
 20
0.0
 30
0.0
  9
$PUCSXDIR
 10
1.0
 20
0.0
 30
0.0
  9
$PUCSYDIR
 10
0.0
 20
1.0
 30
0.0
  9
$USERI1
 70
     0
  9
$USERI2
 70
     0
  9
$USERI3
 70
     0
  9
$USERI4
 70
     0
  9
$USERI5
 70
     0
  9
$USERR1
 40
0.0
  9
$USERR2
 40
0.0
  9
$USERR3
 40
0.0
  9
$USERR4
 40
0.0
  9
$USERR5
 40
0.0
  9
$WORLDVIEW
 70
     1
  9
$SHADEDGE
 70
     3
  9
$SHADEDIF
 70
    70
  9
$TILEMODE
 70
     1
  9
$MAXACTVP
 70
    64
  9
$PLIMCHECK
 70
     0
  9
$PEXTMIN
 10
25.699999999999989
 20
19.5
 30
0.0
  9
$PEXTMAX
 10
231.30000000000001
 20
175.5
 30
0.0
  9
$PLIMMIN
 10
-20.0
 20
-7.5
  9
$PLIMMAX
 10
277.0
 20
202.5
  9
$UNITMODE
 70
     0
  9
$VISRETAIN
 70
     1
  9
$PLINEGEN
 70
     0
  9
$PSLTSCALE
 70
     1
  0
ENDSEC
  0
SECTION
  2
TABLES
  0
TABLE
  2
VPORT
 70
     1
  0
VPORT
  2
*ACTIVE
 70
     0
 10
0.0
 20
0.0
 11
1.0
 21
1.0
 12
2.051299753348494
 22
1.6568537127322709
 13
0.0
 23
0.0
 14
10.0
 24
10.0
 15
10.0
 25
10.0
 16
0.0
 26
0.0
 36
1.0
 17
0.0
 27
0.0
 37
0.0
 40
46.572799818839307
 41
2.2244623655913971
 42
50.0
 43
0.0
 44
0.0
 50
0.0
 51
0.0
 71
     0
 72
  1000
 73
     1
 74
     3
 75
     0
 76
     0
 77
     0
 78
     0
  0
ENDTAB
  0
TABLE
  2
LTYPE
 70
     6
  0
LTYPE
  2
CONTINUOUS
 70
     0
  3
Solid line
 72
    65
 73
     0
 40
0.0
  0
LTYPE
  2
PHANTOM2
 70
     0
  3
Phantom (.5x) ___ _ _ ___ _ _ ___ _ _ ___ _ _
 72
    65
 73
     6
 40
1.25
 49
0.625
 49
-0.125
 49
0.125
 49
-0.125
 49
0.125
 49
-0.125
  0
LTYPE
  2
CENTER
 70
     0
  3
Center ____ _ ____ _ ____ _ ____ _ ____ _ ____
 72
    65
 73
     4
 40
50.799999999999997
 49
31.75
 49
-6.3499999999999979
 49
6.3499999999999979
 49
-6.3499999999999979
  0
LTYPE
  2
DASHED
 70
     0
  3
Dashed __ __ __ __ __ __ __ __ __ __ __ __ __ _
 72
    65
 73
     2
 40
19.050000000000001
 49
12.699999999999999
 49
-6.3499999999999979
  0
LTYPE
  2
PHANTOM
 70
     0
  3
Phantom ______  __  __  ______  __  __  ______
 72
    65
 73
     6
 40
63.5
 49
31.75
 49
-6.3499999999999979
 49
6.3499999999999979
 49
-6.3499999999999979
 49
6.3499999999999979
 49
-6.3499999999999979
  0
ENDTAB
  0
TABLE
  2
LAYER
 70
     3
  0
LAYER
  2
0
 70
     0
 62
     7
  6
CONTINUOUS
  0
LAYER
  2
CENTER
 70
     0
 62
     1
  6
CENTER
  0
LAYER
  2
DEFPOINTS
 70
     0
 62
     7
  6
CONTINUOUS
  0
ENDTAB
  0
TABLE
  2
STYLE
 70
     2
  0
STYLE
  2
STANDARD
 70
     0
 40
3.0
 41
1.0
 50
0.0
 71
     0
 42
3.0
  3
txt.shx
  4
bigfont.shx
  0
STYLE
  2
ANNOTATIVE
 70
     0
 40
0.0
 41
1.0
 50
0.0
 71
     0
 42
0.2
  3
txt
  4

  0
ENDTAB
  0
TABLE
  2
VIEW
 70
     0
  0
ENDTAB
  0
TABLE
  2
UCS
 70
     0
  0
ENDTAB
  0
TABLE
  2
APPID
 70
    12
  0
APPID
  2
ACAD
 70
     0
  0
APPID
  2
ACADANNOTATIVE
 70
     0
  0
APPID
  2
ACAD_MLEADERVER
 70
     0
  0
APPID
  2
ACAD_EXEMPT_FROM_CAD_STANDARDS
 70
     0
  0
APPID
  2
ACDBBLOCKREPETAG
 70
     0
  0
APPID
  2
ACAD_DSTYLE_DIMJOGGED_JOGA
 70
     0
  0
APPID
  2
ACAECLAYERSTANDARD
 70
     0
  0
APPID
  2
GENIUS_GENODEF_13
 70
     0
  0
APPID
  2
GENIUS_GENOBJ-N-FIL_13
 70
     0
  0
APPID
  2
ACAD_PSEXT
 70
     0
  0
APPID
  2
ACAD_DSTYLE_DIMRADIAL_EXTENSION
 70
     0
  0
APPID
  2
ACAD_NAV_VCDISPLAY
 70
     0
  0
ENDTAB
  0
TABLE
  2
DIMSTYLE
 70
     4
  0
DIMSTYLE
  2
STANDARD
 70
     0
  3

  4

  5

  6

  7

 40
1.0
 41
0.18
 42
0.0625
 43
0.38
 44
0.18
 45
0.0
 46
0.0
 47
0.0
 48
0.0
140
0.18
141
0.09
142
0.0
143
25.399999999999999
144
1.0
145
0.0
146
1.0
147
0.09
 71
     0
 72
     0
 73
     1
 74
     1
 75
     0
 76
     0
 77
     0
 78
     0
170
     0
171
     2
172
     0
173
     0
174
     0
175
     0
176
     0
177
     0
178
     0
  0
DIMSTYLE
  2
ANNOTATIVE
 70
     0
  3

  4

  5

  6

  7

 40
1.0
 41
0.18
 42
0.0625
 43
0.38
 44
0.18
 45
0.0
 46
0.0
 47
0.0
 48
0.0
140
0.18
141
0.09
142
0.0
143
25.399999999999999
144
1.0
145
0.0
146
1.0
147
0.09
 71
     0
 72
     0
 73
     1
 74
     1
 75
     0
 76
     0
 77
     0
 78
     0
170
     0
171
     2
172
     0
173
     0
174
     0
175
     0
176
     0
177
     0
178
     0
  0
DIMSTYLE
  2
MISUMI
 70
     0
  3

  4

  5

  6

  7

 40
1.0
 41
2.5
 42
0.625
 43
3.75
 44
1.25
 45
0.0
 46
0.0
 47
0.0
 48
0.0
140
2.5
141
2.5
142
0.0
143
0.03937007874016
144
1.0
145
0.0
146
1.0
147
0.625
 71
     0
 72
     0
 73
     0
 74
     0
 75
     0
 76
     0
 77
     1
 78
     8
170
     0
171
     3
172
     1
173
     0
174
     0
175
     0
176
   137
177
   137
178
   137
  0
ENDTAB
  0
ENDSEC
  0
SECTION
  2
BLOCKS
  0
BLOCK
  8
0
  2
$MODEL_SPACE
 70
     0
 10
0.0
 20
0.0
 30
0.0
  3
$MODEL_SPACE
  1

  0
ENDBLK
  5
7C7B
  8
0
  0
BLOCK
 67
     1
  8
0
  2
$PAPER_SPACE
 70
     0
 10
0.0
 20
0.0
 30
0.0
  3
$PAPER_SPACE
  1

  0
ENDBLK
  5
7C77
 67
     1
  8
0
  0
BLOCK
  8
0
 62
     7
  2
_OPEN30
 70
     0
 10
0.0
 20
0.0
 30
0.0
  3
_OPEN30
  1

  0
LINE
  5
D7
  8
0
  6
BYBLOCK
 62
     0
 10
-1.0
 20
0.26794919
 30
0.0
 11
0.0
 21
0.0
 31
0.0
  0
LINE
  5
D8
  8
0
  6
BYBLOCK
 62
     0
 10
0.0
 20
0.0
 30
0.0
 11
-1.0
 21
-0.26794919
 31
0.0
  0
LINE
  5
D9
  8
0
  6
BYBLOCK
 62
     0
 10
0.0
 20
0.0
 30
0.0
 11
-1.0
 21
0.0
 31
0.0
  0
ENDBLK
  5
DB
  8
0
 62
     7
  0
BLOCK
  8
0
 62
     7
  2
*U3
 70
     1
 10
0.0
 20
0.0
 30
0.0
  3
*U3
  1

  0
TEXT
  5
7C03
  8
0
  6
CONTINUOUS
 62
     7
 10
-25.79365247422766
 20
-26.23156417669631
 30
0.0
 40
3.0
  1
NFSF5-2040-L50
  0
ENDBLK
  5
7C05
  8
0
 62
     7
  0
BLOCK
  8
0
 62
     7
  2
*U4
 70
     1
 10
0.0
 20
0.0
 30
0.0
  3
*U4
  1

  0
TEXT
  5
7C07
  8
0
  6
CONTINUOUS
 62
     7
 10
-25.79365247422766
 20
-30.546641278483811
 30
0.0
 40
3.0
  1
NFSF5-2040
  0
ENDBLK
  5
7C09
  8
0
 62
     7
  0
ENDSEC
  0
SECTION
  2
ENTITIES
  0
LINE
  5
78DB
  8
0
  6
CONTINUOUS
 62
     7
 10
10.0
 20
6.6999999999999922
 30
0.0
 11
10.0
 21
-6.7000000000000037
 31
0.0
  0
LINE
  5
78E9
  8
0
  6
CONTINUOUS
 62
     7
 10
2.9999999999999978
 20
-18.300000000000001
 30
0.0
 11
2.9999999999999978
 21
-19.699999999999999
 31
0.0
  0
LINE
  5
78EB
  8
0
  6
CONTINUOUS
 62
     7
 10
5.9999999999999991
 20
-17.060660171779819
 30
0.0
 11
5.9999999999999991
 21
-18.0
 31
0.0
  0
LINE
  5
78EC
  8
0
  6
CONTINUOUS
 62
     7
 10
3.299999999999998
 20
-18.0
 30
0.0
 11
5.9999999999999991
 21
-18.0
 31
0.0
  0
LINE
  5
78ED
  8
0
  6
CONTINUOUS
 62
     7
 10
3.2999999999999972
 20
-20.0
 30
0.0
 11
8.9999999999999982
 21
-20.0
 31
0.0
  0
LINE
  5
78F6
  8
0
  6
CONTINUOUS
 62
     7
 10
0.4035898384862259
 20
-13.933012701892221
 30
0.0
 11
-0.0000000000000007
 21
-13.699999999999999
 31
0.0
  0
LINE
  5
78FC
  8
0
  6
CONTINUOUS
 62
     7
 10
2.4999999999999991
 20
-14.0
 30
0.0
 11
2.9393398282201768
 21
-14.0
 31
0.0
  0
LINE
  5
7901
  8
0
  6
CONTINUOUS
 62
     7
 10
2.9393398282201768
 20
-14.0
 30
0.0
 11
5.9999999999999991
 21
-17.060660171779819
 31
0.0
  0
LINE
  5
7929
  8
0
  6
CONTINUOUS
 62
     7
 10
2.4999999999999991
 20
-14.0
 30
0.0
 11
1.2188856287933101
 21
-13.75097659248407
 31
0.0
  0
ARC
  5
792A
  8
0
  6
CONTINUOUS
 62
     7
 10
0.653589838486226
 20
-13.5
 30
0.0
 40
0.5
 50
240.0
 51
300.0
  0
LINE
  5
792B
  8
0
  6
CONTINUOUS
 62
     7
 10
0.9035898384862258
 20
-13.933012701892221
 30
0.0
 11
1.2188856287933101
 21
-13.75097659248407
 31
0.0
  0
ARC
  5
7936
  8
0
  6
CONTINUOUS
 62
     7
 10
3.2999999999999972
 20
-18.300000000000001
 30
0.0
 40
0.3
 50
90.0
 51
180.0
  0
ARC
  5
7937
  8
0
  6
CONTINUOUS
 62
     7
 10
3.2999999999999972
 20
-19.699999999999999
 30
0.0
 40
0.3
 50
180.0
 51
270.0
  0
LINE
  5
793D
  8
0
  6
CONTINUOUS
 62
     7
 10
3.9999999999999991
 20
-12.939339828220181
 30
0.0
 11
3.9999999999999991
 21
-10.65358983848623
 31
0.0
  0
LINE
  5
793E
  8
0
  6
CONTINUOUS
 62
     7
 10
3.9999999999999991
 20
-7.5000000000000009
 30
0.0
 11
3.9999999999999991
 21
-7.0606601717798227
 31
0.0
  0
ARC
  5
793F
  8
0
  6
CONTINUOUS
 62
     7
 10
9.7000000000000028
 20
-13.300000000000001
 30
0.0
 40
0.3
 50
0.0
 51
90.0
  0
LINE
  5
7940
  8
0
  6
CONTINUOUS
 62
     7
 10
7.9999999999999991
 20
-16.0
 30
0.0
 11
7.9999999999999991
 21
-13.300000000000001
 31
0.0
  0
ARC
  5
7941
  8
0
  6
CONTINUOUS
 62
     7
 10
8.2999999999999972
 20
-13.300000000000001
 30
0.0
 40
0.3
 50
90.0
 51
180.0
  0
LINE
  5
7942
  8
0
  6
CONTINUOUS
 62
     7
 10
8.0
 20
-6.7000000000000037
 30
0.0
 11
8.0
 21
-4.0000000000000009
 31
0.0
  0
ARC
  5
7943
  8
0
  6
CONTINUOUS
 62
     7
 10
8.2999999999999972
 20
-6.7000000000000037
 30
0.0
 40
0.3
 50
180.0
 51
270.0
  0
LINE
  5
7945
  8
0
  6
CONTINUOUS
 62
     7
 10
7.060660171779821
 20
-4.0
 30
0.0
 11
8.0
 21
-4.0000000000000009
 31
0.0
  0
LINE
  5
7946
  8
0
  6
CONTINUOUS
 62
     7
 10
7.0606601717798139
 20
-16.0
 30
0.0
 11
7.9999999999999991
 21
-16.0
 31
0.0
  0
LINE
  5
7947
  8
0
  6
CONTINUOUS
 62
     7
 10
8.2999999999999972
 20
-7.0000000000000009
 30
0.0
 11
9.7000000000000028
 21
-7.0000000000000009
 31
0.0
  0
ARC
  5
7948
  8
0
  6
CONTINUOUS
 62
     7
 10
9.7000000000000028
 20
-6.7000000000000037
 30
0.0
 40
0.3
 50
270.0
 51
0.0
  0
LINE
  5
7949
  8
0
  6
CONTINUOUS
 62
     7
 10
8.2999999999999972
 20
-13.0
 30
0.0
 11
9.7000000000000028
 21
-13.0
 31
0.0
  0
LINE
  5
794A
  8
0
  6
CONTINUOUS
 62
     7
 10
3.9330127018922232
 20
-9.5964101615137753
 30
0.0
 11
3.7000000000000011
 21
-10.0
 31
0.0
  0
LINE
  5
794B
  8
0
  6
CONTINUOUS
 62
     7
 10
3.9330127018922152
 20
-10.40358983848623
 30
0.0
 11
3.7000000000000011
 21
-10.0
 31
0.0
  0
ARC
  5
794C
  8
0
  6
CONTINUOUS
 62
     7
 10
3.4999999999999991
 20
-10.65358983848623
 30
0.0
 40
0.5
 50
0.0
 51
29.999999999999851
  0
LINE
  5
794D
  8
0
  6
CONTINUOUS
 62
     7
 10
3.9999999999999991
 20
-7.0606601717798227
 30
0.0
 11
7.060660171779821
 21
-4.0
 31
0.0
  0
LINE
  5
794E
  8
0
  6
CONTINUOUS
 62
     7
 10
3.9999999999999991
 20
-12.939339828220181
 30
0.0
 11
7.0606601717798201
 21
-16.0
 31
0.0
  0
LINE
  5
794F
  8
0
  6
CONTINUOUS
 62
     7
 10
3.9999999999999991
 20
-7.5000000000000009
 30
0.0
 11
3.7509765924840708
 21
-8.7811143712066908
 31
0.0
  0
ARC
  5
7950
  8
0
  6
CONTINUOUS
 62
     7
 10
3.4999999999999991
 20
-9.3464101615137753
 30
0.0
 40
0.5
 50
330.00000000000023
 51
29.999999999999851
  0
LINE
  5
7951
  8
0
  6
CONTINUOUS
 62
     7
 10
3.9330127018922232
 20
-9.0964101615137753
 30
0.0
 11
3.7509765924840708
 21
-8.7811143712066908
 31
0.0
  0
LINE
  5
7952
  8
0
  6
CONTINUOUS
 62
     7
 10
10.0
 20
-13.300000000000001
 30
0.0
 11
9.9999999999999982
 21
-19.0
 31
0.0
  0
CIRCLE
  5
7957
  8
0
  6
CONTINUOUS
 62
     7
 10
-0.0000000000000006
 20
-10.0
 30
0.0
 40
2.1000000000000001
  0
ARC
  5
795A
  8
0
  6
CONTINUOUS
 62
     7
 10
9.0000000000000018
 20
19.0
 30
0.0
 40
1.0
 50
0.0
 51
90.0
  0
ARC
  5
795B
  8
0
  6
CONTINUOUS
 62
     7
 10
8.9999999999999982
 20
-19.0
 30
0.0
 40
1.0
 50
270.0
 51
0.0
  0
LINE
  5
7A44
  8
0
  6
CONTINUOUS
 62
     7
 10
2.9393398282201799
 20
14.0
 30
0.0
 11
0.6535898384862238
 21
14.0
 31
0.0
  0
ARC
  5
7A46
  8
0
  6
CONTINUOUS
 62
     7
 10
3.299999999999998
 20
19.699999999999989
 30
0.0
 40
0.3
 50
90.0
 51
180.0
  0
LINE
  5
7A47
  8
0
  6
CONTINUOUS
 62
     7
 10
6.0
 20
18.0
 30
0.0
 11
3.2999999999999972
 21
18.0
 31
0.0
  0
ARC
  5
7A48
  8
0
  6
CONTINUOUS
 62
     7
 10
3.299999999999998
 20
18.300000000000001
 30
0.0
 40
0.3
 50
180.0
 51
270.0
  0
LINE
  5
7A4D
  8
0
  6
CONTINUOUS
 62
     7
 10
6.0
 20
17.060660171779801
 30
0.0
 11
6.0
 21
18.0
 31
0.0
  0
LINE
  5
7A50
  8
0
  6
CONTINUOUS
 62
     7
 10
3.0000000000000009
 20
18.300000000000001
 30
0.0
 11
3.0000000000000009
 21
19.699999999999989
 31
0.0
  0
LINE
  5
7A52
  8
0
  6
CONTINUOUS
 62
     7
 10
0.4035898384862237
 20
13.93301270189221
 30
0.0
 11
0.0000000000000008
 21
13.699999999999999
 31
0.0
  0
ARC
  5
7A53
  8
0
  6
CONTINUOUS
 62
     7
 10
0.6535898384862237
 20
13.5
 30
0.0
 40
0.5
 50
90.0
 51
120.0000000000001
  0
LINE
  5
7A55
  8
0
  6
CONTINUOUS
 62
     7
 10
2.9393398282201799
 20
14.0
 30
0.0
 11
6.0
 21
17.060660171779801
 31
0.0
  0
LINE
  5
7A59
  8
0
  6
CONTINUOUS
 62
     7
 10
3.299999999999998
 20
20.0
 30
0.0
 11
9.0000000000000018
 21
20.0
 31
0.0
  0
LINE
  5
7AF5
  8
0
  6
CONTINUOUS
 62
     7
 10
4.0
 20
7.0606601717798121
 30
0.0
 11
4.0
 21
9.3464101615137736
 31
0.0
  0
LINE
  5
7AF6
  8
0
  6
CONTINUOUS
 62
     7
 10
4.0
 20
12.5
 30
0.0
 11
4.0
 21
12.93933982822017
 31
0.0
  0
ARC
  5
7AF7
  8
0
  6
CONTINUOUS
 62
     7
 10
9.7000000000000028
 20
6.6999999999999922
 30
0.0
 40
0.3
 50
0.0
 51
90.0
  0
LINE
  5
7AF8
  8
0
  6
CONTINUOUS
 62
     7
 10
8.0
 20
3.9999999999999969
 30
0.0
 11
8.0
 21
6.6999999999999922
 31
0.0
  0
ARC
  5
7AF9
  8
0
  6
CONTINUOUS
 62
     7
 10
8.2999999999999972
 20
6.6999999999999922
 30
0.0
 40
0.3
 50
90.0
 51
180.0
  0
LINE
  5
7AFA
  8
0
  6
CONTINUOUS
 62
     7
 10
8.0
 20
13.29999999999999
 30
0.0
 11
8.0000000000000018
 21
16.0
 31
0.0
  0
ARC
  5
7AFB
  8
0
  6
CONTINUOUS
 62
     7
 10
8.2999999999999972
 20
13.29999999999999
 30
0.0
 40
0.3
 50
180.0
 51
270.0
  0
LINE
  5
7AFC
  8
0
  6
CONTINUOUS
 62
     7
 10
7.0606601717798219
 20
16.0
 30
0.0
 11
8.0000000000000018
 21
16.0
 31
0.0
  0
LINE
  5
7AFD
  8
0
  6
CONTINUOUS
 62
     7
 10
7.0606601717798148
 20
3.9999999999999969
 30
0.0
 11
8.0
 21
3.9999999999999969
 31
0.0
  0
LINE
  5
7AFE
  8
0
  6
CONTINUOUS
 62
     7
 10
8.2999999999999972
 20
13.0
 30
0.0
 11
9.7000000000000028
 21
13.0
 31
0.0
  0
ARC
  5
7AFF
  8
0
  6
CONTINUOUS
 62
     7
 10
9.7000000000000028
 20
13.29999999999999
 30
0.0
 40
0.3
 50
270.0
 51
0.0
  0
LINE
  5
7B00
  8
0
  6
CONTINUOUS
 62
     7
 10
8.2999999999999972
 20
6.9999999999999973
 30
0.0
 11
9.7000000000000028
 21
6.9999999999999973
 31
0.0
  0
LINE
  5
7B01
  8
0
  6
CONTINUOUS
 62
     7
 10
3.9330127018922241
 20
10.403589838486219
 30
0.0
 11
3.700000000000002
 21
9.9999999999999982
 31
0.0
  0
LINE
  5
7B02
  8
0
  6
CONTINUOUS
 62
     7
 10
3.9330127018922161
 20
9.5964101615137736
 30
0.0
 11
3.700000000000002
 21
9.9999999999999982
 31
0.0
  0
ARC
  5
7B03
  8
0
  6
CONTINUOUS
 62
     7
 10
3.5
 20
9.3464101615137736
 30
0.0
 40
0.5
 50
0.0
 51
30.000000000000011
  0
LINE
  5
7B04
  8
0
  6
CONTINUOUS
 62
     7
 10
4.0
 20
12.93933982822017
 30
0.0
 11
7.0606601717798219
 21
16.0
 31
0.0
  0
LINE
  5
7B05
  8
0
  6
CONTINUOUS
 62
     7
 10
4.0
 20
7.0606601717798121
 30
0.0
 11
7.060660171779821
 21
3.9999999999999969
 31
0.0
  0
LINE
  5
7B06
  8
0
  6
CONTINUOUS
 62
     7
 10
4.0
 20
12.5
 30
0.0
 11
3.750976592484073
 21
11.2188856287933
 31
0.0
  0
ARC
  5
7B07
  8
0
  6
CONTINUOUS
 62
     7
 10
3.5
 20
10.653589838486219
 30
0.0
 40
0.5
 50
330.0
 51
30.000000000000011
  0
LINE
  5
7B08
  8
0
  6
CONTINUOUS
 62
     7
 10
3.9330127018922241
 20
10.903589838486219
 30
0.0
 11
3.750976592484073
 21
11.2188856287933
 31
0.0
  0
LINE
  5
7B0F
  8
0
  6
CONTINUOUS
 62
     7
 10
10.0
 20
13.29999999999999
 30
0.0
 11
10.0
 21
19.0
 31
0.0
  0
LINE
  5
7B1A
  8
0
  6
CONTINUOUS
 62
     7
 10
-0.0000000000000004
 20
-5.9999999999999991
 30
0.0
 11
2.9393398282201808
 21
-6.0
 31
0.0
  0
LINE
  5
7B1B
  8
0
  6
CONTINUOUS
 62
     7
 10
0.0000000000000004
 20
5.9999999999999991
 30
0.0
 11
2.9393398282201728
 21
5.9999999999999982
 31
0.0
  0
LINE
  5
7B1C
  8
0
  6
CONTINUOUS
 62
     7
 10
2.9393398282201781
 20
-6.0000000000000018
 30
0.0
 11
6.8514718625761439
 21
-2.087867965644036
 31
0.0
  0
LINE
  5
7B1D
  8
0
  6
CONTINUOUS
 62
     7
 10
2.939339828220179
 20
5.9999999999999911
 30
0.0
 11
6.8514718625761448
 21
2.0878679656440342
 31
0.0
  0
LINE
  5
7B20
  8
0
  6
CONTINUOUS
 62
     7
 10
7.0636038969321104
 20
1.9999999999999969
 30
0.0
 11
7.7000000000000002
 21
1.9999999999999969
 31
0.0
  0
LINE
  5
7B21
  8
0
  6
CONTINUOUS
 62
     7
 10
7.0636038969321078
 20
-2.0000000000000009
 30
0.0
 11
7.7000000000000002
 21
-2.0000000000000009
 31
0.0
  0
LINE
  5
7B22
  8
0
  6
CONTINUOUS
 62
     7
 10
8.0
 20
-1.7000000000000011
 30
0.0
 11
8.0
 21
1.699999999999996
 31
0.0
  0
CIRCLE
  5
7B28
  8
0
  6
CONTINUOUS
 62
     7
 10
0.0000000000000006
 20
9.9999999999999982
 30
0.0
 40
2.1000000000000001
  0
ARC
  5
7B2F
  8
0
  6
CONTINUOUS
 62
     7
 10
7.0636038969321078
 20
-2.3000000000000012
 30
0.0
 40
0.3
 50
90.0
 51
134.99999999999989
  0
ARC
  5
7B30
  8
0
  6
CONTINUOUS
 62
     7
 10
7.7000000000000002
 20
-1.7000000000000011
 30
0.0
 40
0.3
 50
270.0
 51
0.0
  0
ARC
  5
7B31
  8
0
  6
CONTINUOUS
 62
     7
 10
7.0636038969321104
 20
2.2999999999999972
 30
0.0
 40
0.3
 50
225.0
 51
270.0
  0
ARC
  5
7B32
  8
0
  6
CONTINUOUS
 62
     7
 10
7.7000000000000002
 20
1.699999999999996
 30
0.0
 40
0.3
 50
0.0
 51
90.0
  0
LINE
  5
7C9E
  8
0
  6
CONTINUOUS
 62
     7
 10
-10.0
 20
6.6999999999999931
 30
0.0
 11
-10.0
 21
-6.700000000000002
 31
0.0
  0
LINE
  5
7C9F
  8
0
  6
CONTINUOUS
 62
     7
 10
-3.0000000000000009
 20
-18.300000000000001
 30
0.0
 11
-3.0000000000000009
 21
-19.699999999999999
 31
0.0
  0
LINE
  5
7CA0
  8
0
  6
CONTINUOUS
 62
     7
 10
-6.0
 20
-17.060660171779819
 30
0.0
 11
-6.0
 21
-18.0
 31
0.0
  0
LINE
  5
7CA1
  8
0
  6
CONTINUOUS
 62
     7
 10
-3.2999999999999989
 20
-18.0
 30
0.0
 11
-6.0
 21
-18.0
 31
0.0
  0
LINE
  5
7CA2
  8
0
  6
CONTINUOUS
 62
     7
 10
-3.2999999999999998
 20
-20.0
 30
0.0
 11
-9.0000000000000018
 21
-20.0
 31
0.0
  0
LINE
  5
7CA3
  8
0
  6
CONTINUOUS
 62
     7
 10
-2.5
 20
-14.0
 30
0.0
 11
-2.939339828220179
 21
-14.0
 31
0.0
  0
LINE
  5
7CA4
  8
0
  6
CONTINUOUS
 62
     7
 10
-2.939339828220179
 20
-14.0
 30
0.0
 11
-6.0
 21
-17.060660171779819
 31
0.0
  0
LINE
  5
7CA5
  8
0
  6
CONTINUOUS
 62
     7
 10
-2.5
 20
-14.0
 30
0.0
 11
-1.218885628793311
 21
-13.75097659248407
 31
0.0
  0
ARC
  5
7CA6
  8
0
  6
CONTINUOUS
 62
     7
 10
-0.6535898384862275
 20
-13.5
 30
0.0
 40
0.5
 50
240.0
 51
300.0
  0
LINE
  5
7CA7
  8
0
  6
CONTINUOUS
 62
     7
 10
-0.9035898384862277
 20
-13.933012701892221
 30
0.0
 11
-1.218885628793311
 21
-13.75097659248407
 31
0.0
  0
ARC
  5
7CA8
  8
0
  6
CONTINUOUS
 62
     7
 10
-3.2999999999999998
 20
-18.300000000000001
 30
0.0
 40
0.3
 50
0.0
 51
90.0
  0
ARC
  5
7CA9
  8
0
  6
CONTINUOUS
 62
     7
 10
-3.2999999999999998
 20
-19.699999999999999
 30
0.0
 40
0.3
 50
270.0
 51
0.0
  0
LINE
  5
7CAA
  8
0
  6
CONTINUOUS
 62
     7
 10
-4.0
 20
-12.939339828220181
 30
0.0
 11
-4.0
 21
-10.65358983848623
 31
0.0
  0
LINE
  5
7CAB
  8
0
  6
CONTINUOUS
 62
     7
 10
-4.0
 20
-7.5000000000000009
 30
0.0
 11
-4.0
 21
-7.0606601717798227
 31
0.0
  0
ARC
  5
7CAC
  8
0
  6
CONTINUOUS
 62
     7
 10
-9.7000000000000028
 20
-13.300000000000001
 30
0.0
 40
0.3
 50
90.0
 51
180.0
  0
LINE
  5
7CAD
  8
0
  6
CONTINUOUS
 62
     7
 10
-8.0000000000000018
 20
-16.0
 30
0.0
 11
-8.0
 21
-13.300000000000001
 31
0.0
  0
ARC
  5
7CAE
  8
0
  6
CONTINUOUS
 62
     7
 10
-8.2999999999999972
 20
-13.300000000000001
 30
0.0
 40
0.3
 50
0.0
 51
90.0
  0
LINE
  5
7CAF
  8
0
  6
CONTINUOUS
 62
     7
 10
-8.0
 20
-6.700000000000002
 30
0.0
 11
-8.0
 21
-4.0
 31
0.0
  0
ARC
  5
7CB0
  8
0
  6
CONTINUOUS
 62
     7
 10
-8.2999999999999972
 20
-6.700000000000002
 30
0.0
 40
0.3
 50
270.0
 51
0.0
  0
LINE
  5
7CB1
  8
0
  6
CONTINUOUS
 62
     7
 10
-7.060660171779821
 20
-4.0
 30
0.0
 11
-8.0
 21
-4.0
 31
0.0
  0
LINE
  5
7CB2
  8
0
  6
CONTINUOUS
 62
     7
 10
-7.0606601717798156
 20
-16.0
 30
0.0
 11
-8.0000000000000018
 21
-16.0
 31
0.0
  0
LINE
  5
7CB3
  8
0
  6
CONTINUOUS
 62
     7
 10
-8.2999999999999972
 20
-7.0
 30
0.0
 11
-9.7000000000000028
 21
-7.0
 31
0.0
  0
ARC
  5
7CB4
  8
0
  6
CONTINUOUS
 62
     7
 10
-9.7000000000000028
 20
-6.700000000000002
 30
0.0
 40
0.3
 50
180.0
 51
270.0
  0
LINE
  5
7CB5
  8
0
  6
CONTINUOUS
 62
     7
 10
-8.2999999999999972
 20
-13.0
 30
0.0
 11
-9.7000000000000028
 21
-13.0
 31
0.0
  0
LINE
  5
7CB6
  8
0
  6
CONTINUOUS
 62
     7
 10
-3.9330127018922241
 20
-9.5964101615137753
 30
0.0
 11
-3.700000000000002
 21
-10.0
 31
0.0
  0
LINE
  5
7CB7
  8
0
  6
CONTINUOUS
 62
     7
 10
-3.9330127018922161
 20
-10.40358983848623
 30
0.0
 11
-3.700000000000002
 21
-10.0
 31
0.0
  0
ARC
  5
7CB8
  8
0
  6
CONTINUOUS
 62
     7
 10
-3.5
 20
-10.65358983848623
 30
0.0
 40
0.5
 50
150.00000000000011
 51
180.0
  0
LINE
  5
7CB9
  8
0
  6
CONTINUOUS
 62
     7
 10
-4.0
 20
-7.0606601717798227
 30
0.0
 11
-7.060660171779821
 21
-4.0
 31
0.0
  0
LINE
  5
7CBA
  8
0
  6
CONTINUOUS
 62
     7
 10
-4.0
 20
-12.939339828220181
 30
0.0
 11
-7.0606601717798219
 21
-16.0
 31
0.0
  0
LINE
  5
7CBB
  8
0
  6
CONTINUOUS
 62
     7
 10
-4.0
 20
-7.5000000000000009
 30
0.0
 11
-3.7509765924840721
 21
-8.7811143712066908
 31
0.0
  0
ARC
  5
7CBC
  8
0
  6
CONTINUOUS
 62
     7
 10
-3.5
 20
-9.3464101615137753
 30
0.0
 40
0.5
 50
150.00000000000011
 51
209.9999999999998
  0
LINE
  5
7CBD
  8
0
  6
CONTINUOUS
 62
     7
 10
-3.9330127018922241
 20
-9.0964101615137753
 30
0.0
 11
-3.7509765924840721
 21
-8.7811143712066908
 31
0.0
  0
LINE
  5
7CBE
  8
0
  6
CONTINUOUS
 62
     7
 10
-10.0
 20
-13.300000000000001
 30
0.0
 11
-10.0
 21
-19.0
 31
0.0
  0
ARC
  5
7CBF
  8
0
  6
CONTINUOUS
 62
     7
 10
-8.9999999999999982
 20
19.0
 30
0.0
 40
1.0
 50
90.0
 51
180.0
  0
ARC
  5
7CC0
  8
0
  6
CONTINUOUS
 62
     7
 10
-9.0000000000000018
 20
-19.0
 30
0.0
 40
1.0
 50
180.0
 51
270.0
  0
LINE
  5
7CC1
  8
0
  6
CONTINUOUS
 62
     7
 10
-2.939339828220179
 20
14.0
 30
0.0
 11
-0.653589838486222
 21
14.0
 31
0.0
  0
ARC
  5
7CC2
  8
0
  6
CONTINUOUS
 62
     7
 10
-3.2999999999999949
 20
19.699999999999989
 30
0.0
 40
0.3
 50
0.0
 51
90.0
  0
LINE
  5
7CC3
  8
0
  6
CONTINUOUS
 62
     7
 10
-5.9999999999999991
 20
18.0
 30
0.0
 11
-3.2999999999999949
 21
18.0
 31
0.0
  0
ARC
  5
7CC4
  8
0
  6
CONTINUOUS
 62
     7
 10
-3.2999999999999949
 20
18.300000000000001
 30
0.0
 40
0.3
 50
270.0
 51
0.0
  0
LINE
  5
7CC5
  8
0
  6
CONTINUOUS
 62
     7
 10
-5.9999999999999991
 20
17.060660171779801
 30
0.0
 11
-5.9999999999999991
 21
18.0
 31
0.0
  0
LINE
  5
7CC6
  8
0
  6
CONTINUOUS
 62
     7
 10
-2.9999999999999978
 20
18.300000000000001
 30
0.0
 11
-2.9999999999999978
 21
19.699999999999989
 31
0.0
  0
LINE
  5
7CC7
  8
0
  6
CONTINUOUS
 62
     7
 10
-2.939339828220179
 20
14.0
 30
0.0
 11
-5.9999999999999991
 21
17.060660171779801
 31
0.0
  0
LINE
  5
7CC8
  8
0
  6
CONTINUOUS
 62
     7
 10
-3.2999999999999949
 20
20.0
 30
0.0
 11
-8.9999999999999982
 21
20.0
 31
0.0
  0
LINE
  5
7CC9
  8
0
  6
CONTINUOUS
 62
     7
 10
-3.9999999999999991
 20
7.0606601717798121
 30
0.0
 11
-3.9999999999999991
 21
9.3464101615137736
 31
0.0
  0
LINE
  5
7CCA
  8
0
  6
CONTINUOUS
 62
     7
 10
-3.9999999999999991
 20
12.5
 30
0.0
 11
-3.9999999999999991
 21
12.93933982822017
 31
0.0
  0
ARC
  5
7CCB
  8
0
  6
CONTINUOUS
 62
     7
 10
-9.7000000000000028
 20
6.6999999999999931
 30
0.0
 40
0.3
 50
90.0
 51
180.0
  0
LINE
  5
7CCC
  8
0
  6
CONTINUOUS
 62
     7
 10
-8.0
 20
3.9999999999999978
 30
0.0
 11
-8.0
 21
6.6999999999999931
 31
0.0
  0
ARC
  5
7CCD
  8
0
  6
CONTINUOUS
 62
     7
 10
-8.2999999999999972
 20
6.6999999999999931
 30
0.0
 40
0.3
 50
0.0
 51
90.0
  0
LINE
  5
7CCE
  8
0
  6
CONTINUOUS
 62
     7
 10
-7.9999999999999991
 20
13.29999999999999
 30
0.0
 11
-7.9999999999999991
 21
16.0
 31
0.0
  0
ARC
  5
7CCF
  8
0
  6
CONTINUOUS
 62
     7
 10
-8.2999999999999972
 20
13.29999999999999
 30
0.0
 40
0.3
 50
270.0
 51
0.0
  0
LINE
  5
7CD0
  8
0
  6
CONTINUOUS
 62
     7
 10
-7.0606601717798201
 20
16.0
 30
0.0
 11
-7.9999999999999991
 21
16.0
 31
0.0
  0
LINE
  5
7CD1
  8
0
  6
CONTINUOUS
 62
     7
 10
-7.0606601717798148
 20
3.9999999999999978
 30
0.0
 11
-8.0
 21
3.9999999999999978
 31
0.0
  0
LINE
  5
7CD2
  8
0
  6
CONTINUOUS
 62
     7
 10
-8.2999999999999972
 20
13.0
 30
0.0
 11
-9.7000000000000028
 21
13.0
 31
0.0
  0
ARC
  5
7CD3
  8
0
  6
CONTINUOUS
 62
     7
 10
-9.7000000000000028
 20
13.29999999999999
 30
0.0
 40
0.3
 50
180.0
 51
270.0
  0
LINE
  5
7CD4
  8
0
  6
CONTINUOUS
 62
     7
 10
-8.2999999999999972
 20
6.9999999999999991
 30
0.0
 11
-9.7000000000000028
 21
6.9999999999999991
 31
0.0
  0
LINE
  5
7CD5
  8
0
  6
CONTINUOUS
 62
     7
 10
-3.9330127018922232
 20
10.403589838486219
 30
0.0
 11
-3.7000000000000011
 21
9.9999999999999982
 31
0.0
  0
LINE
  5
7CD6
  8
0
  6
CONTINUOUS
 62
     7
 10
-3.9330127018922152
 20
9.5964101615137736
 30
0.0
 11
-3.7000000000000011
 21
9.9999999999999982
 31
0.0
  0
ARC
  5
7CD7
  8
0
  6
CONTINUOUS
 62
     7
 10
-3.4999999999999991
 20
9.3464101615137736
 30
0.0
 40
0.5
 50
150.0
 51
180.0
  0
LINE
  5
7CD8
  8
0
  6
CONTINUOUS
 62
     7
 10
-3.9999999999999991
 20
12.93933982822017
 30
0.0
 11
-7.0606601717798201
 21
16.0
 31
0.0
  0
LINE
  5
7CD9
  8
0
  6
CONTINUOUS
 62
     7
 10
-3.9999999999999991
 20
7.0606601717798121
 30
0.0
 11
-7.060660171779821
 21
3.9999999999999978
 31
0.0
  0
LINE
  5
7CDA
  8
0
  6
CONTINUOUS
 62
     7
 10
-3.9999999999999991
 20
12.5
 30
0.0
 11
-3.7509765924840708
 21
11.2188856287933
 31
0.0
  0
ARC
  5
7CDB
  8
0
  6
CONTINUOUS
 62
     7
 10
-3.4999999999999991
 20
10.653589838486219
 30
0.0
 40
0.5
 50
150.0
 51
210.0
  0
LINE
  5
7CDC
  8
0
  6
CONTINUOUS
 62
     7
 10
-3.9330127018922232
 20
10.903589838486219
 30
0.0
 11
-3.7509765924840708
 21
11.2188856287933
 31
0.0
  0
LINE
  5
7CDD
  8
0
  6
CONTINUOUS
 62
     7
 10
-10.0
 20
13.29999999999999
 30
0.0
 11
-9.9999999999999982
 21
19.0
 31
0.0
  0
LINE
  5
7CDE
  8
0
  6
CONTINUOUS
 62
     7
 10
-0.0000000000000004
 20
-5.9999999999999991
 30
0.0
 11
-2.9393398282201821
 21
-6.0
 31
0.0
  0
LINE
  5
7CDF
  8
0
  6
CONTINUOUS
 62
     7
 10
0.0000000000000004
 20
5.9999999999999991
 30
0.0
 11
-2.9393398282201719
 21
5.9999999999999982
 31
0.0
  0
LINE
  5
7CE0
  8
0
  6
CONTINUOUS
 62
     7
 10
-2.939339828220179
 20
-6.0000000000000018
 30
0.0
 11
-6.8514718625761439
 21
-2.0878679656440351
 31
0.0
  0
LINE
  5
7CE1
  8
0
  6
CONTINUOUS
 62
     7
 10
-2.9393398282201781
 20
5.9999999999999911
 30
0.0
 11
-6.8514718625761448
 21
2.0878679656440351
 31
0.0
  0
LINE
  5
7CE2
  8
0
  6
CONTINUOUS
 62
     7
 10
-7.0636038969321104
 20
1.999999999999998
 30
0.0
 11
-7.7000000000000002
 21
1.999999999999998
 31
0.0
  0
LINE
  5
7CE3
  8
0
  6
CONTINUOUS
 62
     7
 10
-7.0636038969321078
 20
-2.0
 30
0.0
 11
-7.7000000000000002
 21
-2.0
 31
0.0
  0
LINE
  5
7CE4
  8
0
  6
CONTINUOUS
 62
     7
 10
-8.0
 20
-1.7
 30
0.0
 11
-8.0
 21
1.6999999999999971
 31
0.0
  0
ARC
  5
7CE5
  8
0
  6
CONTINUOUS
 62
     7
 10
-7.0636038969321078
 20
-2.2999999999999998
 30
0.0
 40
0.3
 50
44.999999999999993
 51
90.0
  0
ARC
  5
7CE6
  8
0
  6
CONTINUOUS
 62
     7
 10
-7.7000000000000002
 20
-1.7
 30
0.0
 40
0.3
 50
180.0
 51
270.0
  0
ARC
  5
7CE7
  8
0
  6
CONTINUOUS
 62
     7
 10
-7.0636038969321104
 20
2.299999999999998
 30
0.0
 40
0.3
 50
270.0
 51
315.0
  0
ARC
  5
7CE8
  8
0
  6
CONTINUOUS
 62
     7
 10
-7.7000000000000002
 20
1.6999999999999971
 30
0.0
 40
0.3
 50
90.0
 51
180.0
  0
LINE
  5
7CEF
  8
0
  6
CONTINUOUS
 62
     7
 10
-0.4035898384862277
 20
-13.933012701892221
 30
0.0
 11
-0.0000000000000008
 21
-13.699999999999999
 31
0.0
  0
LINE
  5
7CF0
  8
0
  6
CONTINUOUS
 62
     7
 10
-0.653589838486222
 20
14.0
 30
0.0
 11
0.0000000000000008
 21
13.699999999999999
 31
0.0
  0
VIEWPORT
  5
6D16
 67
     1
  8
0
  6
CONTINUOUS
 62
     7
 10
128.5
 20
97.5
 30
0.0
 40
622.87456647398835
 41
222.18000000000001
 68
     1
 69
     1
1001
ACAD
1000
MVIEW
1002
{
1070
    16
1010
0.0
1020
0.0
1030
0.0
1010
0.0
1020
0.0
1030
1.0
1040
0.0
1040
222.18000000000001
1040
128.5
1040
97.5
1040
50.0
1040
0.0
1040
0.0
1070
     0
1070
  1000
1070
     1
1070
     1
1070
     0
1070
     0
1070
     0
1070
     0
1040
0.0
1040
0.0
1040
0.0
1040
10.0
1040
10.0
1040
10.0
1040
10.0
1070
     0
1002
{
1002
}
1002
}
  0
VIEWPORT
  5
6D1B
 67
     1
  8
0
  6
CONTINUOUS
 62
     7
 10
128.5
 20
97.5
 30
0.0
 40
205.59999999999999
 41
156.0
 68
     2
 69
     2
1001
ACAD
1000
MVIEW
1002
{
1070
    16
1010
0.0
1020
0.0
1030
0.0
1010
0.0
1020
0.0
1030
1.0
1040
0.0
1040
268.34382130111919
1040
166.06711243968169
1040
53.835407184513031
1040
50.0
1040
0.0
1040
0.0
1070
     0
1070
  1000
1070
     1
1070
     3
1070
     0
1070
     0
1070
     0
1070
     0
1040
0.0
1040
0.0
1040
0.0
1040
10.0
1040
10.0
1040
10.0
1040
10.0
1070
     0
1002
{
1002
}
1002
}
  0
ENDSEC
  0
EOF
